<svg width="436" height="614" viewBox="0 0 436 614" fill="none" xmlns="http://www.w3.org/2000/svg">
<g clip-path="url(#clip0)">
<path fill-rule="evenodd" clip-rule="evenodd" d="M420.626 168.783C420.874 165.568 421 162.327 421 159.062C421 71.2147 329.89 0 217.5 0C105.11 0 14 71.2147 14 159.062C14 162.327 14.1258 165.568 14.3738 168.783H14V509H421V168.783H420.626ZM404.209 168.938C404.209 171.932 404.094 174.906 403.867 177.856H404.209V490H30.793V177.856H31.1359C30.9084 174.906 30.793 171.932 30.793 168.938C30.793 88.3384 114.385 23 217.501 23C320.617 23 404.209 88.3384 404.209 168.938Z" fill="#DB9AF6"/>
<mask id="mask0" style="mask-type:alpha" maskUnits="userSpaceOnUse" x="14" y="0" width="407" height="509">
<path fill-rule="evenodd" clip-rule="evenodd" d="M420.626 168.783C420.874 165.568 421 162.327 421 159.062C421 71.2147 329.89 0 217.5 0C105.11 0 14 71.2147 14 159.062C14 162.327 14.1258 165.568 14.3738 168.783H14V509H421V168.783H420.626ZM404.209 168.938C404.209 171.932 404.094 174.906 403.867 177.856H404.209V490H30.793V177.856H31.1359C30.9084 174.906 30.793 171.932 30.793 168.938C30.793 88.3384 114.385 23 217.501 23C320.617 23 404.209 88.3384 404.209 168.938Z" fill="#DB9AF6"/>
</mask>
<g mask="url(#mask0)">
<rect x="33.5977" y="-14.22" width="22.7989" height="22.7989" fill="#D85A2A"/>
<rect x="79.1954" y="-14.22" width="22.7989" height="22.7989" fill="#D85A2A"/>
<rect x="124.793" y="-14.22" width="22.7989" height="22.7989" fill="#D85A2A"/>
<rect x="170.391" y="-14.22" width="22.7989" height="22.7989" fill="#D85A2A"/>
<rect x="10.7988" y="8.57886" width="22.7989" height="22.7989" fill="#D85A2A"/>
<rect x="56.3966" y="8.57886" width="22.7989" height="22.7989" fill="#D85A2A"/>
<rect x="101.994" y="8.57886" width="22.7989" height="22.7989" fill="#D85A2A"/>
<rect x="147.592" y="8.57886" width="22.7989" height="22.7989" fill="#D85A2A"/>
<rect x="193.19" y="8.57886" width="22.7989" height="22.7989" fill="#D85A2A"/>
<rect x="33.5977" y="31.3777" width="22.7989" height="22.7989" fill="#D85A2A"/>
<rect x="79.1954" y="31.3777" width="22.7989" height="22.7989" fill="#D85A2A"/>
<rect x="124.793" y="31.3777" width="22.7989" height="22.7989" fill="#D85A2A"/>
<rect x="170.391" y="31.3777" width="22.7989" height="22.7989" fill="#D85A2A"/>
<rect x="10.7988" y="54.1765" width="22.7989" height="22.7989" fill="#D85A2A"/>
<rect x="56.3966" y="54.1765" width="22.7989" height="22.7989" fill="#D85A2A"/>
<rect x="101.994" y="54.1765" width="22.7989" height="22.7989" fill="#D85A2A"/>
<rect x="147.592" y="54.1765" width="22.7989" height="22.7989" fill="#D85A2A"/>
<rect x="193.19" y="54.1765" width="22.7989" height="22.7989" fill="#D85A2A"/>
<rect x="33.5977" y="76.9753" width="22.7989" height="22.7989" fill="#D85A2A"/>
<rect x="79.1954" y="76.9753" width="22.7989" height="22.7989" fill="#D85A2A"/>
<rect x="124.793" y="76.9753" width="22.7989" height="22.7989" fill="#D85A2A"/>
<rect x="170.391" y="76.9753" width="22.7989" height="22.7989" fill="#D85A2A"/>
<rect x="10.7988" y="99.7743" width="22.7989" height="22.7989" fill="#D85A2A"/>
<rect x="56.3966" y="99.7743" width="22.7989" height="22.7989" fill="#D85A2A"/>
<rect x="101.994" y="99.7743" width="22.7989" height="22.7989" fill="#D85A2A"/>
<rect x="147.592" y="99.7743" width="22.7989" height="22.7989" fill="#D85A2A"/>
<rect x="193.19" y="99.7743" width="22.7989" height="22.7989" fill="#D85A2A"/>
<rect x="33.5977" y="122.573" width="22.7989" height="22.7989" fill="#D85A2A"/>
<rect x="79.1954" y="122.573" width="22.7989" height="22.7989" fill="#D85A2A"/>
<rect x="124.793" y="122.573" width="22.7989" height="22.7989" fill="#D85A2A"/>
<rect x="170.391" y="122.573" width="22.7989" height="22.7989" fill="#D85A2A"/>
<rect x="10.7988" y="145.372" width="22.7989" height="22.7989" fill="#D85A2A"/>
<rect x="56.3966" y="145.372" width="22.7989" height="22.7989" fill="#D85A2A"/>
<rect x="101.994" y="145.372" width="22.7989" height="22.7989" fill="#D85A2A"/>
<rect x="147.592" y="145.372" width="22.7989" height="22.7989" fill="#D85A2A"/>
<rect x="193.19" y="145.372" width="22.7989" height="22.7989" fill="#D85A2A"/>
<rect x="33.5977" y="168.171" width="22.7989" height="22.7989" fill="#D85A2A"/>
<rect x="79.1954" y="168.171" width="22.7989" height="22.7989" fill="#D85A2A"/>
<rect x="124.793" y="168.171" width="22.7989" height="22.7989" fill="#D85A2A"/>
<rect x="170.391" y="168.171" width="22.7989" height="22.7989" fill="#D85A2A"/>
<rect x="10.7988" y="190.97" width="22.7989" height="22.7989" fill="#D85A2A"/>
<rect x="56.3966" y="190.97" width="22.7989" height="22.7989" fill="#D85A2A"/>
<rect x="101.994" y="190.97" width="22.7989" height="22.7989" fill="#D85A2A"/>
<rect x="147.592" y="190.97" width="22.7989" height="22.7989" fill="#D85A2A"/>
<rect x="193.19" y="190.97" width="22.7989" height="22.7989" fill="#D85A2A"/>
<rect x="33.5977" y="213.769" width="22.7989" height="22.7989" fill="#D85A2A"/>
<rect x="79.1954" y="213.769" width="22.7989" height="22.7989" fill="#D85A2A"/>
<rect x="124.793" y="213.769" width="22.7989" height="22.7989" fill="#D85A2A"/>
<rect x="170.391" y="213.769" width="22.7989" height="22.7989" fill="#D85A2A"/>
<rect x="10.7988" y="236.568" width="22.7989" height="22.7989" fill="#D85A2A"/>
<rect x="56.3966" y="236.568" width="22.7989" height="22.7989" fill="#D85A2A"/>
<rect x="101.994" y="236.568" width="22.7989" height="22.7989" fill="#D85A2A"/>
<rect x="147.592" y="236.568" width="22.7989" height="22.7989" fill="#D85A2A"/>
<rect x="193.19" y="236.568" width="22.7989" height="22.7989" fill="#D85A2A"/>
<rect x="33.5977" y="259.366" width="22.7989" height="22.7989" fill="#D85A2A"/>
<rect x="79.1954" y="259.366" width="22.7989" height="22.7989" fill="#D85A2A"/>
<rect x="124.793" y="259.366" width="22.7989" height="22.7989" fill="#D85A2A"/>
<rect x="170.391" y="259.366" width="22.7989" height="22.7989" fill="#D85A2A"/>
<rect x="10.7988" y="282.165" width="22.7989" height="22.7989" fill="#D85A2A"/>
<rect x="56.3966" y="282.165" width="22.7989" height="22.7989" fill="#D85A2A"/>
<rect x="101.994" y="282.165" width="22.7989" height="22.7989" fill="#D85A2A"/>
<rect x="147.592" y="282.165" width="22.7989" height="22.7989" fill="#D85A2A"/>
<rect x="193.19" y="282.165" width="22.7989" height="22.7989" fill="#D85A2A"/>
<rect x="215.989" y="-14.22" width="22.7989" height="22.7989" fill="#D85A2A"/>
<rect x="261.586" y="-14.22" width="22.7989" height="22.7989" fill="#D85A2A"/>
<rect x="307.184" y="-14.22" width="22.7989" height="22.7989" fill="#D85A2A"/>
<rect x="352.782" y="-14.22" width="22.7989" height="22.7989" fill="#D85A2A"/>
<rect x="398.38" y="-14.22" width="22.7989" height="22.7989" fill="#D85A2A"/>
<rect x="238.787" y="8.57886" width="22.7989" height="22.7989" fill="#D85A2A"/>
<rect x="284.385" y="8.57886" width="22.7989" height="22.7989" fill="#D85A2A"/>
<rect x="329.983" y="8.57886" width="22.7989" height="22.7989" fill="#D85A2A"/>
<rect x="375.581" y="8.57886" width="22.7989" height="22.7989" fill="#D85A2A"/>
<rect x="215.989" y="31.3777" width="22.7989" height="22.7989" fill="#D85A2A"/>
<rect x="261.586" y="31.3777" width="22.7989" height="22.7989" fill="#D85A2A"/>
<rect x="307.184" y="31.3777" width="22.7989" height="22.7989" fill="#D85A2A"/>
<rect x="352.782" y="31.3777" width="22.7989" height="22.7989" fill="#D85A2A"/>
<rect x="398.379" y="31.3777" width="22.7989" height="22.7989" fill="#D85A2A"/>
<rect x="238.787" y="54.1765" width="22.7989" height="22.7989" fill="#D85A2A"/>
<rect x="284.385" y="54.1765" width="22.7989" height="22.7989" fill="#D85A2A"/>
<rect x="329.983" y="54.1765" width="22.7989" height="22.7989" fill="#D85A2A"/>
<rect x="375.581" y="54.1765" width="22.7989" height="22.7989" fill="#D85A2A"/>
<rect x="215.989" y="76.9753" width="22.7989" height="22.7989" fill="#D85A2A"/>
<rect x="261.586" y="76.9753" width="22.7989" height="22.7989" fill="#D85A2A"/>
<rect x="307.184" y="76.9753" width="22.7989" height="22.7989" fill="#D85A2A"/>
<rect x="352.782" y="76.9753" width="22.7989" height="22.7989" fill="#D85A2A"/>
<rect x="398.379" y="76.9753" width="22.7989" height="22.7989" fill="#D85A2A"/>
<rect x="238.787" y="99.7743" width="22.7989" height="22.7989" fill="#D85A2A"/>
<rect x="284.385" y="99.7743" width="22.7989" height="22.7989" fill="#D85A2A"/>
<rect x="329.983" y="99.7743" width="22.7989" height="22.7989" fill="#D85A2A"/>
<rect x="375.581" y="99.7743" width="22.7989" height="22.7989" fill="#D85A2A"/>
<rect x="215.989" y="122.573" width="22.7989" height="22.7989" fill="#D85A2A"/>
<rect x="261.586" y="122.573" width="22.7989" height="22.7989" fill="#D85A2A"/>
<rect x="307.184" y="122.573" width="22.7989" height="22.7989" fill="#D85A2A"/>
<rect x="352.782" y="122.573" width="22.7989" height="22.7989" fill="#D85A2A"/>
<rect x="398.379" y="122.573" width="22.7989" height="22.7989" fill="#D85A2A"/>
<rect x="238.787" y="145.372" width="22.7989" height="22.7989" fill="#D85A2A"/>
<rect x="284.385" y="145.372" width="22.7989" height="22.7989" fill="#D85A2A"/>
<rect x="329.983" y="145.372" width="22.7989" height="22.7989" fill="#D85A2A"/>
<rect x="375.581" y="145.372" width="22.7989" height="22.7989" fill="#D85A2A"/>
<rect x="215.989" y="168.171" width="22.7989" height="22.7989" fill="#D85A2A"/>
<rect x="261.586" y="168.171" width="22.7989" height="22.7989" fill="#D85A2A"/>
<rect x="307.184" y="168.171" width="22.7989" height="22.7989" fill="#D85A2A"/>
<rect x="352.782" y="168.171" width="22.7989" height="22.7989" fill="#D85A2A"/>
<rect x="398.379" y="168.171" width="22.7989" height="22.7989" fill="#D85A2A"/>
<rect x="238.787" y="190.97" width="22.7989" height="22.7989" fill="#D85A2A"/>
<rect x="284.385" y="190.97" width="22.7989" height="22.7989" fill="#D85A2A"/>
<rect x="329.983" y="190.97" width="22.7989" height="22.7989" fill="#D85A2A"/>
<rect x="375.581" y="190.97" width="22.7989" height="22.7989" fill="#D85A2A"/>
<rect x="215.989" y="213.769" width="22.7989" height="22.7989" fill="#D85A2A"/>
<rect x="261.586" y="213.769" width="22.7989" height="22.7989" fill="#D85A2A"/>
<rect x="307.184" y="213.769" width="22.7989" height="22.7989" fill="#D85A2A"/>
<rect x="352.782" y="213.769" width="22.7989" height="22.7989" fill="#D85A2A"/>
<rect x="398.379" y="213.769" width="22.7989" height="22.7989" fill="#D85A2A"/>
<rect x="238.787" y="236.567" width="22.7989" height="22.7989" fill="#D85A2A"/>
<rect x="284.385" y="236.567" width="22.7989" height="22.7989" fill="#D85A2A"/>
<rect x="329.983" y="236.567" width="22.7989" height="22.7989" fill="#D85A2A"/>
<rect x="375.581" y="236.567" width="22.7989" height="22.7989" fill="#D85A2A"/>
<rect x="215.989" y="259.366" width="22.7989" height="22.7989" fill="#D85A2A"/>
<rect x="261.586" y="259.366" width="22.7989" height="22.7989" fill="#D85A2A"/>
<rect x="307.184" y="259.366" width="22.7989" height="22.7989" fill="#D85A2A"/>
<rect x="352.782" y="259.366" width="22.7989" height="22.7989" fill="#D85A2A"/>
<rect x="398.379" y="259.366" width="22.7989" height="22.7989" fill="#D85A2A"/>
<rect x="238.787" y="282.165" width="22.7989" height="22.7989" fill="#D85A2A"/>
<rect x="284.385" y="282.165" width="22.7989" height="22.7989" fill="#D85A2A"/>
<rect x="329.983" y="282.165" width="22.7989" height="22.7989" fill="#D85A2A"/>
<rect x="375.581" y="282.165" width="22.7989" height="22.7989" fill="#D85A2A"/>
<rect x="33.5977" y="260.38" width="22.7989" height="22.7989" fill="#D85A2A"/>
<rect x="79.1954" y="260.38" width="22.7989" height="22.7989" fill="#D85A2A"/>
<rect x="124.793" y="260.38" width="22.7989" height="22.7989" fill="#D85A2A"/>
<rect x="170.391" y="260.38" width="22.7989" height="22.7989" fill="#D85A2A"/>
<rect x="10.7988" y="283.178" width="22.7989" height="22.7989" fill="#D85A2A"/>
<rect x="56.3966" y="283.178" width="22.7989" height="22.7989" fill="#D85A2A"/>
<rect x="101.994" y="283.178" width="22.7989" height="22.7989" fill="#D85A2A"/>
<rect x="147.592" y="283.178" width="22.7989" height="22.7989" fill="#D85A2A"/>
<rect x="193.19" y="283.178" width="22.7989" height="22.7989" fill="#D85A2A"/>
<rect x="33.5977" y="305.977" width="22.7989" height="22.7989" fill="#D85A2A"/>
<rect x="79.1954" y="305.977" width="22.7989" height="22.7989" fill="#D85A2A"/>
<rect x="124.793" y="305.977" width="22.7989" height="22.7989" fill="#D85A2A"/>
<rect x="170.391" y="305.977" width="22.7989" height="22.7989" fill="#D85A2A"/>
<rect x="10.7988" y="328.776" width="22.7989" height="22.7989" fill="#D85A2A"/>
<rect x="56.3966" y="328.776" width="22.7989" height="22.7989" fill="#D85A2A"/>
<rect x="101.994" y="328.776" width="22.7989" height="22.7989" fill="#D85A2A"/>
<rect x="147.592" y="328.776" width="22.7989" height="22.7989" fill="#D85A2A"/>
<rect x="193.19" y="328.776" width="22.7989" height="22.7989" fill="#D85A2A"/>
<rect x="33.5977" y="351.575" width="22.7989" height="22.7989" fill="#D85A2A"/>
<rect x="79.1954" y="351.575" width="22.7989" height="22.7989" fill="#D85A2A"/>
<rect x="124.793" y="351.575" width="22.7989" height="22.7989" fill="#D85A2A"/>
<rect x="170.391" y="351.575" width="22.7989" height="22.7989" fill="#D85A2A"/>
<rect x="10.7988" y="374.374" width="22.7989" height="22.7989" fill="#D85A2A"/>
<rect x="56.3966" y="374.374" width="22.7989" height="22.7989" fill="#D85A2A"/>
<rect x="101.994" y="374.374" width="22.7989" height="22.7989" fill="#D85A2A"/>
<rect x="147.592" y="374.374" width="22.7989" height="22.7989" fill="#D85A2A"/>
<rect x="193.19" y="374.374" width="22.7989" height="22.7989" fill="#D85A2A"/>
<rect x="33.5977" y="397.173" width="22.7989" height="22.7989" fill="#D85A2A"/>
<rect x="79.1954" y="397.173" width="22.7989" height="22.7989" fill="#D85A2A"/>
<rect x="124.793" y="397.173" width="22.7989" height="22.7989" fill="#D85A2A"/>
<rect x="170.391" y="397.173" width="22.7989" height="22.7989" fill="#D85A2A"/>
<rect x="10.7988" y="419.972" width="22.7989" height="22.7989" fill="#D85A2A"/>
<rect x="56.3966" y="419.972" width="22.7989" height="22.7989" fill="#D85A2A"/>
<rect x="101.994" y="419.972" width="22.7989" height="22.7989" fill="#D85A2A"/>
<rect x="147.592" y="419.972" width="22.7989" height="22.7989" fill="#D85A2A"/>
<rect x="193.19" y="419.972" width="22.7989" height="22.7989" fill="#D85A2A"/>
<rect x="33.5977" y="442.77" width="22.7989" height="22.7989" fill="#D85A2A"/>
<rect x="79.1954" y="442.77" width="22.7989" height="22.7989" fill="#D85A2A"/>
<rect x="124.793" y="442.77" width="22.7989" height="22.7989" fill="#D85A2A"/>
<rect x="170.391" y="442.77" width="22.7989" height="22.7989" fill="#D85A2A"/>
<rect x="10.7988" y="465.569" width="22.7989" height="22.7989" fill="#D85A2A"/>
<rect x="56.3966" y="465.569" width="22.7989" height="22.7989" fill="#D85A2A"/>
<rect x="101.994" y="465.569" width="22.7989" height="22.7989" fill="#D85A2A"/>
<rect x="147.592" y="465.569" width="22.7989" height="22.7989" fill="#D85A2A"/>
<rect x="193.19" y="465.569" width="22.7989" height="22.7989" fill="#D85A2A"/>
<rect x="33.5977" y="488.368" width="22.7989" height="22.7989" fill="#D85A2A"/>
<rect x="79.1954" y="488.368" width="22.7989" height="22.7989" fill="#D85A2A"/>
<rect x="124.793" y="488.368" width="22.7989" height="22.7989" fill="#D85A2A"/>
<rect x="170.391" y="488.368" width="22.7989" height="22.7989" fill="#D85A2A"/>
<rect x="215.989" y="260.38" width="22.7989" height="22.7989" fill="#D85A2A"/>
<rect x="261.586" y="260.38" width="22.7989" height="22.7989" fill="#D85A2A"/>
<rect x="307.184" y="260.38" width="22.7989" height="22.7989" fill="#D85A2A"/>
<rect x="352.782" y="260.38" width="22.7989" height="22.7989" fill="#D85A2A"/>
<rect x="398.38" y="260.38" width="22.7989" height="22.7989" fill="#D85A2A"/>
<rect x="238.787" y="283.178" width="22.7989" height="22.7989" fill="#D85A2A"/>
<rect x="284.385" y="283.178" width="22.7989" height="22.7989" fill="#D85A2A"/>
<rect x="329.983" y="283.178" width="22.7989" height="22.7989" fill="#D85A2A"/>
<rect x="375.581" y="283.178" width="22.7989" height="22.7989" fill="#D85A2A"/>
<rect x="215.989" y="305.977" width="22.7989" height="22.7989" fill="#D85A2A"/>
<rect x="261.586" y="305.977" width="22.7989" height="22.7989" fill="#D85A2A"/>
<rect x="307.184" y="305.977" width="22.7989" height="22.7989" fill="#D85A2A"/>
<rect x="352.782" y="305.977" width="22.7989" height="22.7989" fill="#D85A2A"/>
<rect x="398.379" y="305.977" width="22.7989" height="22.7989" fill="#D85A2A"/>
<rect x="238.787" y="328.776" width="22.7989" height="22.7989" fill="#D85A2A"/>
<rect x="284.385" y="328.776" width="22.7989" height="22.7989" fill="#D85A2A"/>
<rect x="329.983" y="328.776" width="22.7989" height="22.7989" fill="#D85A2A"/>
<rect x="375.581" y="328.776" width="22.7989" height="22.7989" fill="#D85A2A"/>
<rect x="215.989" y="351.575" width="22.7989" height="22.7989" fill="#D85A2A"/>
<rect x="261.586" y="351.575" width="22.7989" height="22.7989" fill="#D85A2A"/>
<rect x="307.184" y="351.575" width="22.7989" height="22.7989" fill="#D85A2A"/>
<rect x="352.782" y="351.575" width="22.7989" height="22.7989" fill="#D85A2A"/>
<rect x="398.379" y="351.575" width="22.7989" height="22.7989" fill="#D85A2A"/>
<rect x="238.787" y="374.374" width="22.7989" height="22.7989" fill="#D85A2A"/>
<rect x="284.385" y="374.374" width="22.7989" height="22.7989" fill="#D85A2A"/>
<rect x="329.983" y="374.374" width="22.7989" height="22.7989" fill="#D85A2A"/>
<rect x="375.581" y="374.374" width="22.7989" height="22.7989" fill="#D85A2A"/>
<rect x="215.989" y="397.173" width="22.7989" height="22.7989" fill="#D85A2A"/>
<rect x="261.586" y="397.173" width="22.7989" height="22.7989" fill="#D85A2A"/>
<rect x="307.184" y="397.173" width="22.7989" height="22.7989" fill="#D85A2A"/>
<rect x="352.782" y="397.173" width="22.7989" height="22.7989" fill="#D85A2A"/>
<rect x="398.379" y="397.173" width="22.7989" height="22.7989" fill="#D85A2A"/>
<rect x="238.787" y="419.972" width="22.7989" height="22.7989" fill="#D85A2A"/>
<rect x="284.385" y="419.972" width="22.7989" height="22.7989" fill="#D85A2A"/>
<rect x="329.983" y="419.972" width="22.7989" height="22.7989" fill="#D85A2A"/>
<rect x="375.581" y="419.972" width="22.7989" height="22.7989" fill="#D85A2A"/>
<rect x="215.989" y="442.77" width="22.7989" height="22.7989" fill="#D85A2A"/>
<rect x="261.586" y="442.77" width="22.7989" height="22.7989" fill="#D85A2A"/>
<rect x="307.184" y="442.77" width="22.7989" height="22.7989" fill="#D85A2A"/>
<rect x="352.782" y="442.77" width="22.7989" height="22.7989" fill="#D85A2A"/>
<rect x="398.379" y="442.77" width="22.7989" height="22.7989" fill="#D85A2A"/>
<rect x="238.787" y="465.569" width="22.7989" height="22.7989" fill="#D85A2A"/>
<rect x="284.385" y="465.569" width="22.7989" height="22.7989" fill="#D85A2A"/>
<rect x="329.983" y="465.569" width="22.7989" height="22.7989" fill="#D85A2A"/>
<rect x="375.581" y="465.569" width="22.7989" height="22.7989" fill="#D85A2A"/>
<rect x="215.989" y="488.368" width="22.7989" height="22.7989" fill="#D85A2A"/>
<rect x="261.586" y="488.368" width="22.7989" height="22.7989" fill="#D85A2A"/>
<rect x="307.184" y="488.368" width="22.7989" height="22.7989" fill="#D85A2A"/>
<rect x="352.782" y="488.368" width="22.7989" height="22.7989" fill="#D85A2A"/>
<rect x="398.38" y="488.368" width="22.7989" height="22.7989" fill="#D85A2A"/>
</g>
<circle cx="222.667" cy="229.667" r="0.666667" fill="#DC830C"/>
</g>
<defs>
<clipPath id="clip0">
<rect width="436" height="614" fill="white"/>
</clipPath>
</defs>
</svg>
