<svg width="436" height="614" viewBox="0 0 436 614" fill="none" xmlns="http://www.w3.org/2000/svg">
<g clip-path="url(#clip0)">
<circle cx="222.667" cy="229.667" r="0.666667" fill="#DC830C"/>
<path fill-rule="evenodd" clip-rule="evenodd" d="M218 595C338.398 595 436 586.717 436 576.5V595H435.922C435.974 595.166 436 595.333 436 595.5C436 605.717 338.398 614 218 614C97.6019 614 0 605.717 0 595.5C0 595.333 0.0261355 595.166 0.0780786 595H0V576.5C0 586.717 97.6019 595 218 595ZM0.706223 575C0.238418 575.495 0 575.995 0 576.5V575H0.706223ZM435.294 575H436V576.5C436 575.995 435.762 575.495 435.294 575Z" fill="#F1F1F1"/>
<path d="M434.5 576.5C434.5 576.507 434.501 576.561 434.429 576.683C434.35 576.814 434.196 577.004 433.913 577.24C433.336 577.722 432.387 578.266 430.996 578.843C428.229 579.991 424.06 581.13 418.573 582.23C407.625 584.427 391.728 586.415 372.022 588.087C332.626 591.43 278.171 593.5 218 593.5C157.829 593.5 103.374 591.43 63.9776 588.087C44.2715 586.415 28.3749 584.427 17.4266 582.23C11.9405 581.13 7.77125 579.991 5.0036 578.843C3.61284 578.266 2.66392 577.722 2.08734 577.24C1.80389 577.004 1.64982 576.814 1.57142 576.683C1.49987 576.563 1.49998 576.508 1.5 576.5L1.5 576.5L1.5 576.5C1.49998 576.492 1.49987 576.437 1.57142 576.317C1.64982 576.186 1.80389 575.996 2.08734 575.76C2.66392 575.278 3.61284 574.734 5.0036 574.157C7.77125 573.009 11.9405 571.87 17.4266 570.77C28.3749 568.573 44.2715 566.585 63.9776 564.913C103.374 561.57 157.829 559.5 218 559.5C278.171 559.5 332.626 561.57 372.022 564.913C391.728 566.585 407.625 568.573 418.573 570.77C424.06 571.87 428.229 573.009 430.996 574.157C432.387 574.734 433.336 575.278 433.913 575.76C434.196 575.996 434.35 576.186 434.429 576.317C434.5 576.437 434.5 576.492 434.5 576.5V576.5Z" stroke="#F1F1F1" stroke-width="3"/>
</g>
<defs>
<clipPath id="clip0">
<rect width="436" height="614" fill="white"/>
</clipPath>
</defs>
</svg>
