<svg width="453" height="580" viewBox="0 0 453 580" fill="none" xmlns="http://www.w3.org/2000/svg">
<rect x="200.824" y="188.677" width="63.515" height="30.0253" fill="#1E293E"/>
<path d="M238.364 257.25C238.163 254.072 240.568 251.292 243.741 251.036L266.464 249.199L270.36 432.864L249.511 433.544L238.364 257.25Z" fill="#FFB08A"/>
<path d="M227.124 252.412C227.349 249.241 224.972 246.446 221.806 246.159L198 244L193.674 429.463L214.524 430.134L227.124 252.412Z" fill="#FFB08A"/>
<path d="M263.184 177.128L236.277 200.961L240.833 401.167L273.19 400.431L263.184 177.128Z" fill="#1E293E"/>
<path d="M201.402 165.003L228.838 196.363L224.122 403.64L190.804 402.882L201.402 165.003Z" fill="#1E293E"/>
<path d="M210.287 101.893C210.287 107.873 208.946 113.259 206.808 117.129C204.658 121.019 201.781 123.257 198.739 123.257C195.697 123.257 192.82 121.019 190.67 117.129C188.532 113.259 187.191 107.873 187.191 101.893C187.191 95.9128 188.532 90.5273 190.67 86.6573C192.82 82.7672 195.697 80.5289 198.739 80.5289C201.781 80.5289 204.658 82.7672 206.808 86.6573C208.946 90.5273 210.287 95.9128 210.287 101.893Z" fill="#070706" stroke="black" stroke-width="1.15482"/>
<path d="M261.099 99.5835C261.099 105.24 262.438 110.332 264.572 113.991C266.715 117.664 269.59 119.793 272.647 119.793C275.705 119.793 278.58 117.664 280.723 113.991C282.857 110.332 284.196 105.24 284.196 99.5835C284.196 93.9272 282.857 88.8347 280.723 85.176C278.58 81.5031 275.705 79.3742 272.647 79.3742C269.59 79.3742 266.715 81.5031 264.572 85.176C262.438 88.8347 261.099 93.9272 261.099 99.5835Z" fill="#070706" stroke="black" stroke-width="1.15482"/>
<ellipse cx="221.258" cy="81.1064" rx="20.7867" ry="15.0126" fill="#070706"/>
<ellipse cx="212.597" cy="113.441" rx="16.7449" ry="19.6319" fill="#070706"/>
<ellipse rx="16.7449" ry="17.8997" transform="matrix(-1 0 0 1 259.944 116.328)" fill="#070706"/>
<ellipse rx="10" ry="37" transform="matrix(-1 0 0 1 274 60)" fill="#070706"/>
<ellipse rx="10" ry="37" transform="matrix(-1 0 0 1 197 60)" fill="#070706"/>
<circle cx="218.371" cy="102.471" r="16.7449" fill="#070706"/>
<circle cx="259.944" cy="83.9934" r="16.7449" fill="#070706"/>
<circle r="16.7449" transform="matrix(-1 0 0 1 239.158 102.471)" fill="#070706"/>
<path d="M209.075 105.883C209.548 103.108 211.953 101.078 214.767 101.078L246.848 101.078L260.74 101.078L263.54 139.957L268.212 173.8L271.676 195.164L193.149 199.206L200.655 155.323L209.075 105.883Z" fill="#FFF4E2"/>
<path d="M187.765 26.82L200.128 24.5103L200.632 72.1433L186.611 55.6904L187.765 26.82Z" fill="#070706"/>
<path d="M279.573 26.82L269.107 24.5103L268.602 72.1433L273.221 65.5063L281.305 53.9582L279.573 26.82Z" fill="#070706"/>
<rect x="224.158" y="66.9795" width="23.2775" height="31.6971" transform="rotate(1.43268 224.158 66.9795)" fill="#FF9867"/>
<path d="M265.56 26.1129L276.068 26.0016L276.366 54.226L265.159 54.3448L265.56 26.1129Z" fill="#070706"/>
<ellipse cx="235.058" cy="98.1212" rx="11.6531" ry="13.802" transform="rotate(-0.0832762 235.058 98.1212)" fill="#FF9867"/>
<ellipse cx="235.29" cy="45.3487" rx="40.2802" ry="42.0315" transform="rotate(-0.606908 235.29 45.3487)" fill="#FFB08A"/>
<ellipse cx="195.399" cy="49.2742" rx="11.5587" ry="11.9089" transform="rotate(-0.606908 195.399 49.2742)" fill="#FFB08A"/>
<ellipse cx="273.854" cy="48.443" rx="11.5587" ry="11.9089" transform="rotate(-0.606908 273.854 48.443)" fill="#FFB08A"/>
<ellipse cx="213.678" cy="55.3856" rx="13.6602" ry="5.6042" transform="rotate(-0.606908 213.678 55.3856)" fill="#EFA1C2" fill-opacity="0.6"/>
<ellipse cx="258.51" cy="54.9107" rx="13.6602" ry="5.6042" transform="rotate(-0.606908 258.51 54.9107)" fill="#EFA1C2" fill-opacity="0.6"/>
<circle cx="217.028" cy="40.9889" r="13.6602" transform="rotate(-0.606908 217.028 40.9889)" fill="white"/>
<path d="M203.586 28.5209L204.648 29.5605L206.772 31.6397" stroke="black" stroke-width="2.30963" stroke-linecap="round"/>
<path d="M206.327 25.776L207.179 26.9937L208.883 29.429" stroke="black" stroke-width="2.30963" stroke-linecap="round"/>
<mask id="mask0" style="mask-type:alpha" maskUnits="userSpaceOnUse" x="203" y="27" width="28" height="28">
<circle cx="217.028" cy="40.9889" r="13.6602" transform="rotate(-0.606908 217.028 40.9889)" fill="white"/>
</mask>
<g mask="url(#mask0)">
<circle cx="219.837" cy="37.6596" r="10.9829" transform="rotate(-0.606908 219.837 37.6596)" fill="#432C17"/>
</g>
<path d="M230.114 41.3752C230.083 38.4928 229.142 35.694 227.424 33.3792C225.706 31.0645 223.3 29.3524 220.55 28.4882C217.8 27.6239 214.848 27.6516 212.114 28.5674C209.381 29.4832 207.008 31.2401 205.334 33.5867" stroke="black" stroke-width="2.30963" stroke-linecap="round"/>
<circle cx="254.855" cy="40.5879" r="13.6602" transform="rotate(-0.606908 254.855 40.5879)" fill="white"/>
<mask id="mask1" style="mask-type:alpha" maskUnits="userSpaceOnUse" x="241" y="26" width="28" height="29">
<circle cx="254.855" cy="40.5879" r="13.6602" transform="rotate(-0.606908 254.855 40.5879)" fill="white"/>
</mask>
<g mask="url(#mask1)">
<circle cx="257.57" cy="37.2824" r="10.6099" transform="rotate(-0.606908 257.57 37.2824)" fill="#432C17"/>
</g>
<path d="M228.828 65.3993C228.813 65.3207 229.49 65.1204 230.708 64.8424C231.926 64.5645 233.586 64.2316 235.323 63.9171C237.059 63.6025 238.731 63.3321 239.969 63.1653C241.207 62.9985 241.91 62.9489 241.925 63.0275" stroke="#E13651" stroke-width="2.30963" stroke-linecap="round" stroke-linejoin="round"/>
<path d="M268.738 27.8307L267.698 28.8925L265.619 31.0163" stroke="black" stroke-width="2.30963" stroke-linecap="round"/>
<path d="M265.94 25.1447L265.114 26.3801L263.462 28.8509" stroke="black" stroke-width="2.30963" stroke-linecap="round"/>
<path d="M207.395 9.49766C215.727 16.5916 260.387 29.4657 270.772 27.8943C281.157 26.323 278.528 27.1589 279.581 26.8198C279.311 19.2275 274.618 1.07598 253.598 1.41376C233.776 1.73229 210.333 1.64887 209.102 0.967565L209.129 0.837387C209.035 0.882994 209.028 0.926372 209.102 0.967565L207.395 9.49766Z" fill="#070706"/>
<path d="M217.789 12.963C209.457 20.0569 205.078 31.8566 194.693 30.2853C184.308 28.7139 188.818 27.6736 187.764 27.3345C188.034 19.7422 190.995 0.499656 212.015 0.837438C225.659 1.05667 219.403 5.12632 215.699 6.69293L217.789 12.963Z" fill="#070706"/>
<path d="M241.074 41.3753C241.105 38.4929 242.046 35.6941 243.764 33.3794C245.482 31.0646 247.888 29.3526 250.638 28.4883C253.387 27.624 256.34 27.6517 259.073 28.5675C261.807 29.4833 264.18 31.2402 265.854 33.5869" stroke="black" stroke-width="2.30963" stroke-linecap="round"/>
<path d="M230.038 93.5746C233.511 91.5698 237.951 92.7595 239.956 96.2319L240.676 97.4787C242.68 100.951 241.491 105.391 238.018 107.396V107.396C234.546 109.401 230.106 108.211 228.101 104.739L227.381 103.492C225.376 100.02 226.566 95.5794 230.038 93.5746V93.5746Z" fill="#FFB08A"/>
<path d="M187.31 150.292C190.783 148.287 195.223 149.477 197.228 152.949L197.947 154.196C199.952 157.669 198.762 162.109 195.29 164.113V164.113C191.818 166.118 187.378 164.929 185.373 161.456L184.653 160.209C182.648 156.737 183.838 152.297 187.31 150.292V150.292Z" fill="#FFB08A"/>
<path d="M178.141 150.802L201.448 113.172L210.431 118.736C213.142 120.415 213.978 123.974 212.299 126.685L192.032 159.406L178.141 150.802Z" fill="#FFB08A"/>
<path d="M254.337 119.211L256.664 152.526L267.204 151.79C270.385 151.568 272.784 148.809 272.562 145.627L270.637 118.072L254.337 119.211Z" fill="#FFB08A"/>
<path d="M190.185 131.64L206.32 104.404C207.945 101.66 211.487 100.753 214.231 102.379L218.89 105.139C221.634 106.764 222.54 110.306 220.915 113.05L204.78 140.286L190.185 131.64Z" fill="#FFF4E2"/>
<path d="M237.942 103.722L194.756 156.943C191.558 160.884 185.78 161.507 181.815 158.339L180.168 157.023C177.522 154.909 177.255 150.984 179.589 148.531L228.819 96.8019L237.942 103.722Z" fill="#FFB08A"/>
<path d="M230.493 134.284C230.957 131.474 230.371 125.978 224.313 126.472C223.849 129.282 224.435 134.778 230.493 134.284Z" fill="#648F2C"/>
<path d="M230.491 135.167C232.44 134.609 235.797 132.558 233.634 128.811C231.685 129.369 228.328 131.42 230.491 135.167Z" fill="#648F2C"/>
<path d="M241.606 142.697C241.606 149.492 236.098 155 229.303 155C222.508 155 217 149.492 217 142.697C217 135.902 223.151 129.515 229.303 133.909C235.894 129.515 241.606 135.902 241.606 142.697Z" fill="#FF9100"/>
<mask id="mask2" style="mask-type:alpha" maskUnits="userSpaceOnUse" x="217" y="132" width="25" height="23">
<path d="M241.606 142.697C241.606 149.492 236.098 155 229.303 155C222.508 155 217 149.492 217 142.697C217 135.902 223.151 129.515 229.303 133.909C235.894 129.515 241.606 135.902 241.606 142.697Z" fill="#FF9100"/>
</mask>
<g mask="url(#mask2)">
<path d="M224.909 153.682C230.182 155.439 238.091 148.263 240.288 144.455C241.581 141.093 241.368 137.05 241.223 135.788L241.167 135.667C241.128 135.241 241.171 135.335 241.223 135.788L246.879 147.97C246.732 151.192 246.439 157.812 246.439 158.515C246.439 159.218 239.995 159.687 236.773 159.833C231.353 157.05 219.636 151.924 224.909 153.682Z" fill="#DC830C"/>
</g>
<circle cx="221.394" cy="140.939" r="1.75758" fill="#FFB553"/>
<circle cx="224.47" cy="144.015" r="1.31818" fill="#FFB553"/>
<circle cx="221.394" cy="146.212" r="0.878788" fill="#FFB553"/>
<path d="M192.571 149.767L259.779 136.33C264.756 135.335 269.603 138.541 270.636 143.51L271.065 145.575C271.754 148.89 269.456 152.084 266.093 152.484L195.182 160.916L192.571 149.767Z" fill="#FFB08A"/>
<circle cx="217.676" cy="41.051" r="15.7809" stroke="#E7E7E7" stroke-width="3.46445"/>
<circle cx="254.804" cy="41.051" r="15.7809" stroke="#E7E7E7" stroke-width="3.46445"/>
<path d="M255.509 137.631L253.086 107.588C252.829 104.41 255.198 101.625 258.377 101.369L263.775 100.933C266.954 100.677 269.738 103.046 269.995 106.225L272.418 136.267L255.509 137.631Z" fill="#FFF4E2"/>
<path d="M199.882 64.3112C193.877 58.7681 194.3 43.5245 195.263 36.5956C196.61 28.1269 199.651 13.6147 198.727 25.6248C197.571 40.6374 196.994 41.2148 204.501 59.1145C210.506 73.4343 203.924 85.8678 199.882 90.2946C202.384 83.9431 205.887 69.8543 199.882 64.3112Z" fill="#070706"/>
<path d="M182.105 498.208C172.19 467.397 184.586 433.797 212.136 416.808L217.5 413.5L225.553 451.205L182.105 498.208V498.208Z" fill="white"/>
<path d="M181.944 497.89C172.028 467.078 184.424 433.478 211.975 416.489L217.339 413.181L225.392 450.886L181.944 497.89V497.89Z" fill="white"/>
<path d="M181.944 497.89C172.028 467.078 184.424 433.478 211.975 416.489L217.339 413.181L225.392 450.886L181.944 497.89V497.89Z" fill="white"/>
<path d="M181.944 497.89C172.028 467.078 184.424 433.478 211.975 416.489L217.339 413.181L225.392 450.886L181.944 497.89V497.89Z" fill="white"/>
<path d="M181.944 497.89C172.028 467.078 184.424 433.478 211.975 416.489L217.339 413.181L225.392 450.886L181.944 497.89V497.89Z" fill="white"/>
<path d="M181.944 497.89C172.028 467.078 184.424 433.478 211.975 416.489L217.339 413.181L225.392 450.886L181.944 497.89V497.89Z" fill="white"/>
<path fill-rule="evenodd" clip-rule="evenodd" d="M178.818 470.296C182.182 468.191 185.332 464.916 187.686 460.752C192.054 453.027 192.39 444.535 189.061 439.376C183.293 448.719 179.77 459.319 178.818 470.296Z" fill="#C4C4C4"/>
<path fill-rule="evenodd" clip-rule="evenodd" d="M182.523 492.617L181.012 494.26C181.321 495.385 181.66 496.507 182.029 497.625L182.333 497.9L185.042 494.95L182.523 492.617ZM186.229 493.658L187.818 491.928L185.301 489.597L183.711 491.326L186.229 493.658ZM190.907 488.564L189.005 490.635L186.49 488.305L188.394 486.236L190.907 488.564ZM193.683 485.542L192.094 487.272L189.582 484.944L191.172 483.215L193.683 485.542ZM194.871 484.249L197.159 481.757L194.651 479.434L192.36 481.923L194.871 484.249ZM198.346 480.465L199.935 478.735L197.429 476.413L195.839 478.142L198.346 480.465ZM203.218 475.161L201.123 477.442L198.618 475.121L200.715 472.842L203.218 475.161ZM209.252 468.591L207.181 470.845L204.681 468.53L206.754 466.277L209.252 468.591ZM203.493 469.822L205.994 472.138L204.405 473.868L201.902 471.551L203.493 469.822ZM213.215 464.275L215.31 461.994L212.818 459.685L210.721 461.965L213.215 464.275ZM212.028 465.568L209.532 463.257L207.942 464.986L210.439 467.298L212.028 465.568ZM221.176 455.608L219.274 457.679L216.784 455.373L218.688 453.304L221.176 455.608ZM215.596 456.665L218.086 458.972L216.497 460.702L214.006 458.394L215.596 456.665ZM225.139 451.293L225.59 450.802L224.679 446.792L222.655 448.992L225.139 451.293ZM223.951 452.586L221.466 450.284L219.876 452.013L222.362 454.316L223.951 452.586Z" fill="#C4C4C4"/>
<path fill-rule="evenodd" clip-rule="evenodd" d="M179.247 463.751L184.453 465.286C185.138 464.57 185.796 463.808 186.42 463.003L179.823 461.059C179.612 461.952 179.42 462.85 179.247 463.751Z" fill="#E46262"/>
<path fill-rule="evenodd" clip-rule="evenodd" d="M181.274 455.881L189.413 458.279C189.838 457.438 190.213 456.593 190.538 455.749L182.179 453.286C181.859 454.145 181.558 455.01 181.274 455.881Z" fill="#FAFF15"/>
<path fill-rule="evenodd" clip-rule="evenodd" d="M182.664 452.022L190.991 454.475C191.281 453.585 191.516 452.698 191.695 451.821L183.733 449.475C183.359 450.317 183.002 451.166 182.664 452.022Z" fill="#5B9D5A"/>
<path fill-rule="evenodd" clip-rule="evenodd" d="M180.116 459.871L187.194 461.957C187.53 461.482 187.854 460.994 188.166 460.493C188.361 460.179 188.549 459.864 188.73 459.548L180.853 457.226C180.589 458.103 180.343 458.985 180.116 459.871Z" fill="#FFB800"/>
<path fill-rule="evenodd" clip-rule="evenodd" d="M185.936 444.98L192.118 446.802C192.158 447.723 192.129 448.671 192.031 449.638L184.665 447.468C185.071 446.631 185.494 445.802 185.936 444.98Z" fill="#5BA4D9"/>
<ellipse cx="186.163" cy="464.049" rx="2" ry="0.5" transform="rotate(-50.9625 186.163 464.049)" fill="#C4C4C4"/>
<ellipse cx="188.163" cy="461.049" rx="2" ry="0.5" transform="rotate(-62.5175 188.163 461.049)" fill="#C4C4C4"/>
<ellipse cx="190.163" cy="457.049" rx="2" ry="0.5" transform="rotate(-69.7024 190.163 457.049)" fill="#C4C4C4"/>
<ellipse cx="191.163" cy="453.049" rx="2" ry="0.5" transform="rotate(-79.6216 191.163 453.049)" fill="#C4C4C4"/>
<ellipse cx="191.837" cy="448.056" rx="2" ry="0.5" transform="rotate(-85.7131 191.837 448.056)" fill="#C4C4C4"/>
<circle cx="209.469" cy="440.844" r="9.9163" transform="rotate(-36.1542 209.469 440.844)" fill="#C4C4C4"/>
<circle cx="209.248" cy="440.897" r="8.11334" transform="rotate(-36.1542 209.248 440.897)" fill="white"/>
<path d="M209.002 435.291L210.609 438.928L214.416 440.075L210.779 441.682L209.632 445.489L208.025 441.852L204.218 440.705L207.855 439.098L209.002 435.291Z" fill="#FFB800"/>
<path d="M182.105 498.208C172.19 467.397 184.586 433.797 212.136 416.808L217.5 413.5L225.553 451.205L182.105 498.208V498.208Z" fill="white"/>
<path d="M181.944 497.89C172.028 467.078 184.424 433.478 211.975 416.489L217.339 413.181L225.392 450.886L181.944 497.89V497.89Z" fill="white"/>
<path d="M181.944 497.89C172.028 467.078 184.424 433.478 211.975 416.489L217.339 413.181L225.392 450.886L181.944 497.89V497.89Z" fill="white"/>
<path d="M181.944 497.89C172.028 467.078 184.424 433.478 211.975 416.489L217.339 413.181L225.392 450.886L181.944 497.89V497.89Z" fill="white"/>
<path d="M181.944 497.89C172.028 467.078 184.424 433.478 211.975 416.489L217.339 413.181L225.392 450.886L181.944 497.89V497.89Z" fill="white"/>
<path d="M181.944 497.89C172.028 467.078 184.424 433.478 211.975 416.489L217.339 413.181L225.392 450.886L181.944 497.89V497.89Z" fill="white"/>
<path fill-rule="evenodd" clip-rule="evenodd" d="M178.818 470.296C182.182 468.191 185.332 464.916 187.686 460.752C192.054 453.027 192.39 444.535 189.061 439.376C183.293 448.719 179.77 459.319 178.818 470.296Z" fill="#C4C4C4"/>
<path fill-rule="evenodd" clip-rule="evenodd" d="M182.523 492.617L181.012 494.26C181.321 495.385 181.66 496.507 182.029 497.625L182.333 497.9L185.042 494.95L182.523 492.617ZM186.229 493.658L187.818 491.928L185.301 489.597L183.711 491.326L186.229 493.658ZM190.907 488.564L189.005 490.635L186.49 488.305L188.394 486.236L190.907 488.564ZM193.683 485.542L192.094 487.272L189.582 484.944L191.172 483.215L193.683 485.542ZM194.871 484.249L197.159 481.757L194.651 479.434L192.36 481.923L194.871 484.249ZM198.346 480.465L199.935 478.735L197.429 476.413L195.839 478.142L198.346 480.465ZM203.218 475.161L201.123 477.442L198.618 475.121L200.715 472.842L203.218 475.161ZM209.252 468.591L207.181 470.845L204.681 468.53L206.754 466.277L209.252 468.591ZM203.493 469.822L205.994 472.138L204.405 473.868L201.902 471.551L203.493 469.822ZM213.215 464.275L215.31 461.994L212.818 459.685L210.721 461.965L213.215 464.275ZM212.028 465.568L209.532 463.257L207.942 464.986L210.439 467.298L212.028 465.568ZM221.176 455.608L219.274 457.679L216.784 455.373L218.688 453.304L221.176 455.608ZM215.596 456.665L218.086 458.972L216.497 460.702L214.006 458.394L215.596 456.665ZM225.139 451.293L225.59 450.802L224.679 446.792L222.655 448.992L225.139 451.293ZM223.951 452.586L221.466 450.284L219.876 452.013L222.362 454.316L223.951 452.586Z" fill="#C4C4C4"/>
<path fill-rule="evenodd" clip-rule="evenodd" d="M179.247 463.751L184.453 465.286C185.138 464.57 185.796 463.808 186.42 463.003L179.823 461.059C179.612 461.952 179.42 462.85 179.247 463.751Z" fill="#E46262"/>
<path fill-rule="evenodd" clip-rule="evenodd" d="M181.274 455.881L189.413 458.279C189.838 457.438 190.213 456.593 190.538 455.749L182.179 453.286C181.859 454.145 181.558 455.01 181.274 455.881Z" fill="#FAFF15"/>
<path fill-rule="evenodd" clip-rule="evenodd" d="M182.664 452.022L190.991 454.475C191.281 453.585 191.516 452.698 191.695 451.821L183.733 449.475C183.359 450.317 183.002 451.166 182.664 452.022Z" fill="#5B9D5A"/>
<path fill-rule="evenodd" clip-rule="evenodd" d="M180.116 459.871L187.194 461.957C187.53 461.482 187.854 460.994 188.166 460.493C188.361 460.179 188.549 459.864 188.73 459.548L180.853 457.226C180.589 458.103 180.343 458.985 180.116 459.871Z" fill="#FFB800"/>
<path fill-rule="evenodd" clip-rule="evenodd" d="M185.936 444.98L192.118 446.802C192.158 447.723 192.129 448.671 192.031 449.638L184.665 447.468C185.071 446.631 185.494 445.802 185.936 444.98Z" fill="#5BA4D9"/>
<ellipse cx="186.163" cy="464.049" rx="2" ry="0.5" transform="rotate(-50.9625 186.163 464.049)" fill="#C4C4C4"/>
<ellipse cx="188.163" cy="461.049" rx="2" ry="0.5" transform="rotate(-62.5175 188.163 461.049)" fill="#C4C4C4"/>
<ellipse cx="190.163" cy="457.049" rx="2" ry="0.5" transform="rotate(-69.7024 190.163 457.049)" fill="#C4C4C4"/>
<ellipse cx="191.163" cy="453.049" rx="2" ry="0.5" transform="rotate(-79.6216 191.163 453.049)" fill="#C4C4C4"/>
<ellipse cx="191.837" cy="448.056" rx="2" ry="0.5" transform="rotate(-85.7131 191.837 448.056)" fill="#C4C4C4"/>
<circle cx="209.469" cy="440.844" r="9.9163" transform="rotate(-36.1542 209.469 440.844)" fill="#C4C4C4"/>
<circle cx="209.248" cy="440.897" r="8.11334" transform="rotate(-36.1542 209.248 440.897)" fill="white"/>
<path d="M209.002 435.291L210.609 438.928L214.416 440.075L210.779 441.682L209.632 445.489L208.025 441.852L204.218 440.705L207.855 439.098L209.002 435.291Z" fill="#FFB800"/>
<path d="M280.793 498.208C290.709 467.397 278.313 433.797 250.762 416.808L245.399 413.5L237.345 451.205L280.793 498.208V498.208Z" fill="white"/>
<path d="M280.954 497.89C290.87 467.078 278.474 433.478 250.924 416.489L245.56 413.181L237.506 450.886L280.954 497.89V497.89Z" fill="white"/>
<path d="M280.954 497.89C290.87 467.078 278.474 433.478 250.924 416.489L245.56 413.181L237.506 450.886L280.954 497.89V497.89Z" fill="white"/>
<path d="M280.954 497.89C290.87 467.078 278.474 433.478 250.924 416.489L245.56 413.181L237.506 450.886L280.954 497.89V497.89Z" fill="white"/>
<path d="M280.954 497.89C290.87 467.078 278.474 433.478 250.924 416.489L245.56 413.181L237.506 450.886L280.954 497.89V497.89Z" fill="white"/>
<path d="M280.954 497.89C290.87 467.078 278.474 433.478 250.924 416.489L245.56 413.181L237.506 450.886L280.954 497.89V497.89Z" fill="white"/>
<path fill-rule="evenodd" clip-rule="evenodd" d="M284.08 470.296C280.716 468.191 277.567 464.916 275.213 460.752C270.845 453.027 270.508 444.535 273.838 439.376C279.606 448.719 283.129 459.319 284.08 470.296Z" fill="#C4C4C4"/>
<path fill-rule="evenodd" clip-rule="evenodd" d="M280.376 492.617L281.887 494.26C281.577 495.385 281.238 496.507 280.87 497.625L280.566 497.9L277.857 494.95L280.376 492.617ZM276.67 493.658L275.081 491.928L277.597 489.597L279.188 491.326L276.67 493.658ZM271.991 488.564L273.894 490.635L276.409 488.305L274.505 486.236L271.991 488.564ZM269.215 485.542L270.804 487.272L273.317 484.944L271.727 483.215L269.215 485.542ZM268.028 484.249L265.74 481.757L268.248 479.434L270.538 481.923L268.028 484.249ZM264.553 480.465L262.963 478.735L265.469 476.413L267.06 478.142L264.553 480.465ZM259.681 475.161L261.776 477.442L264.281 475.121L262.184 472.842L259.681 475.161ZM253.647 468.591L255.718 470.845L258.217 468.53L256.145 466.277L253.647 468.591ZM259.406 469.822L256.905 472.138L258.494 473.868L260.996 471.551L259.406 469.822ZM249.683 464.275L247.588 461.994L250.081 459.685L252.178 461.965L249.683 464.275ZM250.871 465.568L253.366 463.257L254.957 464.986L252.46 467.298L250.871 465.568ZM241.723 455.608L243.625 457.679L246.114 455.373L244.211 453.304L241.723 455.608ZM247.303 456.665L244.812 458.972L246.401 460.702L248.893 458.394L247.303 456.665ZM237.76 451.293L237.309 450.802L238.22 446.792L240.244 448.992L237.76 451.293ZM238.947 452.586L241.432 450.284L243.023 452.013L240.536 454.316L238.947 452.586Z" fill="#C4C4C4"/>
<path fill-rule="evenodd" clip-rule="evenodd" d="M283.652 463.751L278.446 465.286C277.761 464.57 277.103 463.808 276.479 463.003L283.076 461.059C283.287 461.952 283.479 462.85 283.652 463.751Z" fill="#E46262"/>
<path fill-rule="evenodd" clip-rule="evenodd" d="M281.624 455.881L273.486 458.279C273.06 457.438 272.685 456.593 272.36 455.749L280.72 453.286C281.04 454.145 281.341 455.01 281.624 455.881Z" fill="#FAFF15"/>
<path fill-rule="evenodd" clip-rule="evenodd" d="M280.235 452.022L271.908 454.475C271.617 453.585 271.383 452.698 271.203 451.821L279.166 449.475C279.54 450.317 279.896 451.166 280.235 452.022Z" fill="#5B9D5A"/>
<path fill-rule="evenodd" clip-rule="evenodd" d="M282.783 459.871L275.704 461.957C275.369 461.482 275.044 460.994 274.733 460.493C274.538 460.179 274.35 459.864 274.169 459.548L282.046 457.226C282.31 458.103 282.556 458.985 282.783 459.871Z" fill="#FFB800"/>
<path fill-rule="evenodd" clip-rule="evenodd" d="M276.963 444.98L270.78 446.802C270.741 447.723 270.77 448.671 270.868 449.638L278.233 447.468C277.828 446.631 277.404 445.802 276.963 444.98Z" fill="#5BA4D9"/>
<ellipse rx="2" ry="0.5" transform="matrix(-0.629829 -0.776734 -0.776734 0.629829 276.736 464.049)" fill="#C4C4C4"/>
<ellipse rx="2" ry="0.5" transform="matrix(-0.461477 -0.887152 -0.887152 0.461477 274.736 461.049)" fill="#C4C4C4"/>
<ellipse rx="2" ry="0.5" transform="matrix(-0.346896 -0.937904 -0.937904 0.346896 272.736 457.049)" fill="#C4C4C4"/>
<ellipse rx="2" ry="0.5" transform="matrix(-0.180148 -0.983639 -0.983639 0.180148 271.736 453.049)" fill="#C4C4C4"/>
<ellipse rx="2" ry="0.5" transform="matrix(-0.0747502 -0.997202 -0.997202 0.0747502 271.062 448.056)" fill="#C4C4C4"/>
<circle r="9.9163" transform="matrix(-0.807432 -0.58996 -0.58996 0.807432 253.43 440.844)" fill="#C4C4C4"/>
<circle r="8.11334" transform="matrix(-0.807432 -0.58996 -0.58996 0.807432 253.651 440.897)" fill="white"/>
<path d="M253.897 435.291L252.29 438.928L248.483 440.075L252.12 441.682L253.267 445.489L254.874 441.852L258.68 440.705L255.044 439.098L253.897 435.291Z" fill="#FFB800"/>
<path d="M191 413.5L217.5 412L217.968 416.078L218.437 420.156L192.5 435L191 413.5Z" fill="white"/>
<path d="M271.899 413.5L245.399 412L244.93 416.078L244.462 420.156L270.399 435L271.899 413.5Z" fill="white"/>
<path d="M247.581 85.1629C248.42 84.7049 249.47 85.0825 249.824 85.9694V85.9694C250.108 86.6776 249.849 87.4872 249.208 87.9003L236.311 96.2105L234.145 92.503L247.581 85.1629Z" fill="#FFB08A"/>
<path d="M228.724 88.8876C228.575 87.9976 229.122 87.1387 229.991 86.8978V86.8978C230.824 86.667 231.701 87.0739 232.063 87.8587L235.406 95.1154L230 96.5L228.724 88.8876Z" fill="#FFB08A"/>
<path d="M233.797 44.0706C233.806 43.4251 234.071 42.8097 234.535 42.3598C234.999 41.9098 235.622 41.6621 236.269 41.6712C236.916 41.6803 237.532 41.9455 237.983 42.4083C238.434 42.8712 238.682 43.4938 238.673 44.1393" stroke="#E7E7E7" stroke-width="3.46445" stroke-linecap="round" stroke-linejoin="round"/>
<path d="M191.586 36.8233C191.82 36.0563 192.554 35.476 193.625 35.2103C194.696 34.9445 196.017 35.015 197.298 35.4062C198.578 35.7975 199.713 36.4774 200.453 37.2965C201.193 38.1155 201.477 39.0066 201.243 39.7737" stroke="#E7E7E7" stroke-width="3.46445" stroke-linecap="round" stroke-linejoin="round"/>
<path d="M281.278 37.5239C281.044 36.7568 280.296 36.1808 279.2 35.9227C278.104 35.6645 276.75 35.7452 275.434 36.1472C274.118 36.5491 272.95 37.2393 272.185 38.0659C271.421 38.8925 271.123 39.7879 271.357 40.5549" stroke="#E7E7E7" stroke-width="3.46445" stroke-linecap="round" stroke-linejoin="round"/>
</svg>
