<svg width="251" height="278" viewBox="0 0 251 278" fill="none" xmlns="http://www.w3.org/2000/svg">
<ellipse cx="127.493" cy="55.7405" rx="4.07735" ry="13.4866" fill="#070706"/>
<ellipse rx="6.27285" ry="23.2096" transform="matrix(-1 0 0 1 168.74 47.6737)" fill="#070706"/>
<ellipse rx="6.27285" ry="23.2096" transform="matrix(-1 0 0 1 126.084 47.0465)" fill="#070706"/>
<path d="M133.139 66.0908C133.139 69.3392 132.411 72.2645 131.249 74.3667C130.081 76.4798 128.518 77.6956 126.866 77.6956C125.214 77.6956 123.651 76.4798 122.483 74.3667C121.321 72.2645 120.593 69.3392 120.593 66.0908C120.593 62.8424 121.321 59.917 122.483 57.8149C123.651 55.7018 125.214 54.486 126.866 54.486C128.518 54.486 130.081 55.7018 131.249 57.8149C132.411 59.917 133.139 62.8424 133.139 66.0908Z" fill="#070706" stroke="black" stroke-width="0.627285"/>
<path d="M160.739 64.8361C160.739 67.9085 161.467 70.6747 162.626 72.6621C163.79 74.6571 165.351 75.8136 167.012 75.8136C168.673 75.8136 170.235 74.6571 171.399 72.6621C172.558 70.6747 173.285 67.9085 173.285 64.8361C173.285 61.7636 172.558 58.9974 171.399 57.0101C170.235 55.015 168.673 53.8586 167.012 53.8586C165.351 53.8586 163.79 55.015 162.626 57.0101C161.467 58.9974 160.739 61.7636 160.739 64.8361Z" fill="#070706" stroke="black" stroke-width="0.627285"/>
<ellipse cx="139.098" cy="54.7995" rx="11.2911" ry="8.15471" fill="#070706"/>
<ellipse cx="134.393" cy="72.3636" rx="9.09564" ry="10.6639" fill="#070706"/>
<ellipse rx="9.09564" ry="9.72292" transform="matrix(-1 0 0 1 160.112 73.9317)" fill="#070706"/>
<circle cx="137.53" cy="66.4042" r="9.09564" fill="#070706"/>
<circle cx="160.112" cy="56.3679" r="9.09564" fill="#070706"/>
<circle r="9.09564" transform="matrix(-1 0 0 1 148.821 66.4042)" fill="#070706"/>
<path d="M139.123 129.062L154.362 134.728L138.053 178.598L125.753 174.025C124.129 173.422 123.302 171.616 123.906 169.993L139.123 129.062Z" fill="#FFB08A"/>
<path d="M106.471 125.772L116.883 138.26L80.9338 168.231L72.5308 158.152C71.4216 156.822 71.6009 154.844 72.9314 153.735L106.471 125.772Z" fill="#FFB08A"/>
<path d="M123.251 173.481C123.36 171.752 124.85 170.439 126.579 170.548L139.675 171.375L130.291 241.564L119.024 240.424L123.251 173.481Z" fill="#FFB08A"/>
<path d="M114.848 122.489L128.441 99.8134L162.155 112.959L162.123 134.197L157.345 142.123L114.848 122.489Z" fill="#1E293E"/>
<path d="M68.5145 160.912C69.4763 159.472 71.4239 159.084 72.8645 160.045L83.7781 167.331L40.445 223.339L31.2707 216.699L68.5145 160.912Z" fill="#FFB08A"/>
<path d="M119.348 238.967L130.33 241.483L129.271 253.513L114.522 249.668L119.348 238.967Z" fill="#FFB08A"/>
<path d="M33.149 214.985L43.9122 218.805L39.2191 229.932L18.8511 215.863L33.149 214.985Z" fill="#FFB08A"/>
<path d="M120.906 25.3119L127.622 24.0573L127.896 49.9311L120.279 40.994L120.906 25.3119Z" fill="#070706"/>
<path d="M170.775 25.3118L165.09 24.0572L164.816 49.9309L167.325 46.3258L171.716 40.053L170.775 25.3118Z" fill="#070706"/>
<path d="M163.163 24.9279L168.871 24.8674L169.033 40.1986L162.945 40.2631L163.163 24.9279Z" fill="#070706"/>
<ellipse cx="146.721" cy="35.3766" rx="21.8798" ry="22.8311" transform="rotate(-0.606908 146.721 35.3766)" fill="#FFB08A"/>
<ellipse cx="125.053" cy="37.5086" rx="6.27855" ry="6.46881" transform="rotate(-0.606908 125.053 37.5086)" fill="#FFB08A"/>
<ellipse cx="167.668" cy="37.0572" rx="6.27855" ry="6.46881" transform="rotate(-0.606908 167.668 37.0572)" fill="#FFB08A"/>
<ellipse cx="134.982" cy="40.8284" rx="7.4201" ry="3.04414" transform="rotate(-0.606908 134.982 40.8284)" fill="#EFA1C2" fill-opacity="0.6"/>
<ellipse cx="159.334" cy="40.5704" rx="7.4201" ry="3.04414" transform="rotate(-0.606908 159.334 40.5704)" fill="#EFA1C2" fill-opacity="0.6"/>
<circle cx="136.801" cy="33.0083" r="7.4201" transform="rotate(-0.606908 136.801 33.0083)" fill="white"/>
<path d="M144.053 35.3941C144.614 33.7586 144.586 31.9786 143.974 30.3614C143.363 28.7443 142.205 27.3914 140.702 26.5366C139.2 25.6818 137.445 25.3787 135.743 25.6796C134.04 25.9804 132.496 26.8664 131.377 28.1846" stroke="black" stroke-width="1.25457" stroke-linecap="round"/>
<path d="M129.5 26.2356L130.076 26.8003L131.23 27.9297" stroke="black" stroke-width="1.25457" stroke-linecap="round"/>
<path d="M130.989 24.7446L131.451 25.406L132.377 26.7289" stroke="black" stroke-width="1.25457" stroke-linecap="round"/>
<mask id="mask0" style="mask-type:alpha" maskUnits="userSpaceOnUse" x="129" y="25" width="16" height="16">
<circle cx="136.801" cy="33.0083" r="7.4201" transform="rotate(-0.606908 136.801 33.0083)" fill="white"/>
</mask>
<g mask="url(#mask0)">
<circle cx="135.089" cy="34.4821" r="5.96583" transform="rotate(-0.606908 135.089 34.4821)" fill="#432C17"/>
</g>
<circle cx="157.348" cy="32.7903" r="7.4201" transform="rotate(-0.606908 157.348 32.7903)" fill="white"/>
<mask id="mask1" style="mask-type:alpha" maskUnits="userSpaceOnUse" x="149" y="25" width="16" height="16">
<circle cx="157.348" cy="32.7903" r="7.4201" transform="rotate(-0.606908 157.348 32.7903)" fill="white"/>
</mask>
<g mask="url(#mask1)">
<circle cx="155.585" cy="34.9047" r="5.76317" transform="rotate(-0.606908 155.585 34.9047)" fill="#432C17"/>
</g>
<path d="M150.023 41.8106C150.034 42.8198 149.663 43.7916 148.993 44.5124C148.323 45.2331 147.408 45.6437 146.449 45.6539C145.49 45.664 144.567 45.2729 143.881 44.5665C143.196 43.8601 142.805 42.8963 142.794 41.8872" stroke="#E13651" stroke-width="1.25457" stroke-linecap="round" stroke-linejoin="round"/>
<path d="M145.743 34.8077C145.748 34.4571 145.892 34.1228 146.144 33.8783C146.396 33.6339 146.735 33.4994 147.086 33.5043C147.437 33.5093 147.772 33.6533 148.017 33.9047C148.262 34.1561 148.397 34.4944 148.392 34.845" stroke="#E7E7E7" stroke-width="1.88186" stroke-linecap="round" stroke-linejoin="round"/>
<path d="M122.814 30.871C122.942 30.4544 123.34 30.1392 123.922 29.9948C124.504 29.8505 125.222 29.8888 125.917 30.1013C126.613 30.3138 127.229 30.6831 127.631 31.128C128.033 31.5729 128.187 32.057 128.06 32.4736" stroke="#E7E7E7" stroke-width="1.88186" stroke-linecap="round" stroke-linejoin="round"/>
<path d="M171.534 31.2515C171.407 30.8349 171.001 30.522 170.406 30.3817C169.81 30.2415 169.075 30.2854 168.36 30.5037C167.645 30.722 167.011 31.0969 166.595 31.5459C166.18 31.9949 166.018 32.4813 166.145 32.8979" stroke="#E7E7E7" stroke-width="1.88186" stroke-linecap="round" stroke-linejoin="round"/>
<path d="M150.534 35.3256C149.938 33.7024 149.928 31.9222 150.506 30.2924C151.083 28.6626 152.211 27.2856 153.696 26.3992C155.18 25.5127 156.928 25.1725 158.636 25.4372C160.345 25.7019 161.907 26.555 163.054 27.8492" stroke="black" stroke-width="1.25457" stroke-linecap="round"/>
<path d="M164.89 25.8608L164.325 26.4376L163.196 27.5912" stroke="black" stroke-width="1.25457" stroke-linecap="round"/>
<path d="M163.369 24.4019L162.921 25.0729L162.023 26.4151" stroke="black" stroke-width="1.25457" stroke-linecap="round"/>
<path d="M131.569 15.9025C136.095 19.7559 160.353 26.749 165.995 25.8954C171.636 25.0419 170.207 25.4959 170.78 25.3117C170.633 21.1877 168.084 11.328 156.666 11.5114C145.898 11.6845 133.165 11.6391 132.496 11.2691L132.51 11.1984C132.459 11.2231 132.456 11.2467 132.496 11.2691L131.569 15.9025Z" fill="#070706"/>
<path d="M137.215 17.7847C132.689 21.6381 130.31 28.0476 124.669 27.194C119.028 26.3405 121.478 25.7754 120.906 25.5912C121.053 21.4671 122.661 11.0148 134.079 11.1982C141.49 11.3173 138.092 13.5279 136.08 14.3789L137.215 17.7847Z" fill="#070706"/>
<rect x="140.177" y="51.6711" width="12.6441" height="17.2175" transform="rotate(1.43268 140.177 51.6711)" fill="#FFB08A"/>
<path d="M113.713 72.4153L135.842 68.6273L137.062 75.7535L118.025 79.0123C116.317 79.3045 114.696 78.1574 114.404 76.45L113.713 72.4153Z" fill="#FFB08A"/>
<path d="M123.09 70.8103L135.906 68.6165C137.613 68.3242 139.234 69.4714 139.527 71.1788L140.217 75.2135L124.31 77.9365L123.09 70.8103Z" fill="#FFF4E2"/>
<path d="M135.341 69.8717C135.744 68.74 136.758 67.9377 137.952 67.8058L152.399 66.2102V66.2102C157.601 68.0598 161.217 72.8108 161.613 78.3176L162.482 90.3731L164.005 109.78L164.005 119.102L121.908 107.302L128.046 90.3731L135.341 69.8717Z" fill="#FFF4E2"/>
<path d="M109.515 52.2871L121.931 75.7377L118.313 77.653C116.782 78.4635 114.884 77.8795 114.074 76.3487L103.126 55.67L109.515 52.2871Z" fill="#FFB08A"/>
<path d="M103.134 15.2329L104.882 49.7738L103.308 49.8535L101.56 15.3126L103.134 15.2329Z" fill="white"/>
<path d="M101.552 7.84176L103.587 12.6672L108.805 12.2227L104.845 15.6495L106.88 20.475L102.397 17.7674L98.4368 21.1942L99.6265 16.094L95.1436 13.3865L100.362 12.942L101.552 7.84176Z" fill="#FF9431"/>
<path d="M100.809 7.84336L102.85 12.6813L108.081 12.2356L104.111 15.6712L106.151 20.5091L101.657 17.7946L97.6862 21.2303L98.879 16.1169L94.3845 13.4024L99.6162 12.9567L100.809 7.84336Z" fill="#FFC531"/>
<path d="M101.169 11.7031L102.126 13.9712L104.578 13.7622L102.717 15.3729L103.673 17.6409L101.566 16.3683L99.705 17.979L100.264 15.5818L98.1572 14.3092L100.61 14.1003L101.169 11.7031Z" fill="#FF9431"/>
<path d="M66.7747 156.884L119.483 114.917L132.838 133.444L81.0008 174.741L66.7747 156.884Z" fill="#1E293E"/>
<path d="M39.6537 200.819L66.9626 156.831L85.5692 170.062L55.2416 212.712L39.6537 200.819Z" fill="#1E293E"/>
<rect x="54.7233" y="110.427" width="142.506" height="6.06467" transform="rotate(13.5815 54.7233 110.427)" fill="#BA9347"/>
<circle cx="54.1398" cy="113.328" r="3.08864" transform="rotate(-9.71372 54.1398 113.328)" fill="#B58A36"/>
<path d="M117.771 169.33L133.942 126.903L162.101 134.323L139.84 173.706L117.771 169.33Z" fill="#1E293E"/>
<path d="M116.602 230.609L117.77 169.331L140.031 172.945L133.986 230.315L116.602 230.609Z" fill="#1E293E"/>
<path d="M102.459 45.3466C104.908 44.0498 107.945 44.9842 109.242 47.4336L110.063 48.9844C111.36 51.4338 110.426 54.4707 107.976 55.7675L107.365 56.0909C104.916 57.3877 101.879 56.4533 100.582 54.0039L99.7612 52.4531C98.4643 50.0037 99.3987 46.9668 101.848 45.67L102.459 45.3466Z" fill="#FFB08A"/>
<path d="M113.255 126.649C114.439 124.162 117.414 123.106 119.9 124.289L121.543 125.071C124.029 126.254 125.086 129.229 123.903 131.715V131.715C122.719 134.202 119.744 135.258 117.258 134.075L115.615 133.293C113.129 132.11 112.072 129.135 113.255 126.649V126.649Z" fill="#FFB08A"/>
<path d="M141.696 85.4889C141.987 83.7264 141.619 80.2788 137.819 80.5885C137.528 82.351 137.896 85.7986 141.696 85.4889Z" fill="#648F2C"/>
<path d="M141.695 86.0424C142.917 85.6927 145.023 84.4058 143.666 82.0557C142.443 82.4054 140.338 83.6923 141.695 86.0424Z" fill="#648F2C"/>
<path d="M148.667 90.7662C148.667 95.0285 145.211 98.4837 140.949 98.4837C136.687 98.4837 133.232 95.0285 133.232 90.7662C133.232 86.5039 137.09 82.4975 140.949 85.2537C145.083 82.4975 148.667 86.5039 148.667 90.7662Z" fill="#FF9100"/>
<mask id="mask2" style="mask-type:alpha" maskUnits="userSpaceOnUse" x="133" y="84" width="16" height="15">
<path d="M148.667 90.7662C148.667 95.0285 145.211 98.4837 140.949 98.4837C136.687 98.4837 133.232 95.0285 133.232 90.7662C133.232 86.5039 137.09 82.4975 140.949 85.2537C145.083 82.4975 148.667 86.5039 148.667 90.7662Z" fill="#FF9100"/>
</mask>
<g mask="url(#mask2)">
<path d="M138.193 97.6568C141.5 98.7593 146.462 94.2574 147.84 91.8687C148.651 89.76 148.517 87.2239 148.426 86.4325L148.391 86.3562C148.367 86.089 148.394 86.148 148.426 86.4325L151.974 94.0737C151.882 96.0949 151.698 100.248 151.698 100.689C151.698 101.13 147.656 101.424 145.635 101.516C142.235 99.7699 134.885 96.5543 138.193 97.6568Z" fill="#DC830C"/>
</g>
<circle cx="135.988" cy="89.6638" r="1.1025" fill="#FFB553"/>
<circle cx="137.917" cy="91.5932" r="0.826876" fill="#FFB553"/>
<circle cx="135.988" cy="92.9712" r="0.551251" fill="#FFB553"/>
<ellipse cx="146.016" cy="66.0222" rx="6.33652" ry="7.49709" transform="rotate(2.73616 146.016 66.0222)" fill="#FFB08A"/>
<path d="M118.807 123.875L151.771 87.5197L154.803 90.2693C156.086 91.4328 156.183 93.4163 155.02 94.6995L124.163 128.731L118.807 123.875Z" fill="#FFB08A"/>
<path d="M145.478 94.4043L152.754 78.8238C153.487 77.2543 155.353 76.5761 156.923 77.3091L159.588 78.5538C161.158 79.2868 161.836 81.1533 161.103 82.7228L153.827 98.3033L145.478 94.4043Z" fill="#FFF4E2"/>
<circle cx="136.987" cy="33.105" r="8.57202" stroke="#E7E7E7" stroke-width="1.88186"/>
<circle cx="157.154" cy="33.105" r="8.57202" stroke="#E7E7E7" stroke-width="1.88186"/>
<path d="M206.434 142.369C216.784 138.107 225.967 147.189 229.265 152.263C240.985 167.94 241.629 172.184 241.629 179.795C234.589 168.95 231.548 175.969 228.504 176.426C224.699 176.996 203.961 173.001 199.775 166.722C195.589 160.444 193.497 147.697 206.434 142.369Z" fill="#BA6210"/>
<path d="M196.056 151.536C185.222 159.486 190.904 174.794 195.099 181.454C195.099 181.454 216.417 200.572 223.745 196.918C220.557 195.789 193.684 174.087 197.489 162.862C204.732 141.497 233.856 168.64 228.723 160.29C223.589 151.94 209.599 141.599 196.056 151.536Z" fill="#BA6210"/>
<path d="M190.643 150.344C198.394 139.367 209.236 145.562 215.972 149.635C238.348 161.341 242.39 188.927 241.249 201.484C232.116 190.259 215.564 202.055 202.816 176.751C192.667 156.604 208.432 187.826 199.99 182.845C191.548 177.865 180.954 164.065 190.643 150.344Z" fill="#BA6210"/>
<path d="M198.139 142.075C184.939 144.59 183.482 160.853 184.404 168.67C191.591 183.219 198.435 194.4 206.621 194.254C204.229 191.864 197.123 179.973 200.37 178.364C204.429 176.353 224.903 173.777 223.862 164.031C222.82 154.285 214.64 138.931 198.139 142.075Z" fill="#BA6210"/>
<path d="M198.087 142.025C184.887 144.54 180.966 141.156 181.888 148.973C175.609 168.379 184.736 185.839 192.923 185.693C187.596 182.649 185.693 160.769 198.821 163.052C203.284 163.828 215.872 164.709 214.83 154.962C213.789 145.216 214.587 138.881 198.087 142.025Z" fill="#BA6210"/>
<path d="M187.438 139.551C188.388 139.079 197.68 136.225 197.68 136.225C205.861 134.513 223.174 136.225 233.807 149.534C219.179 143.646 211.188 139.732 211.188 149.534C211.188 154.064 189.617 171.471 188.391 161.746C187.056 151.157 171.761 147.334 187.438 139.551Z" fill="#BA6210"/>
<path d="M183.248 146.02C188.926 132.82 210.457 139.322 216.942 143.339C221.264 146.015 224.115 140.053 238.696 160.088C238.724 160.124 238.751 160.161 238.776 160.198C238.75 160.161 238.723 160.124 238.696 160.088C236.795 157.612 229.89 157.706 227.551 160.84C224.585 164.814 216.508 184.07 207.15 182.347C197.791 180.623 176.151 162.521 183.248 146.02Z" fill="#BA6210"/>
<path d="M94.9397 3.04419L95.6078 4.84952L97.4131 5.51756L95.6078 6.18559L94.9397 7.99092L94.2717 6.18559L92.4664 5.51756L94.2717 4.84952L94.9397 3.04419Z" fill="white"/>
<path d="M106.735 4.56616L107.198 5.81601L108.448 6.27849L107.198 6.74098L106.735 7.99082L106.273 6.74098L105.023 6.27849L106.273 5.81601L106.735 4.56616Z" fill="white"/>
<path d="M102.17 0L102.427 0.694359L103.121 0.951295L102.427 1.20823L102.17 1.90259L101.913 1.20823L101.218 0.951295L101.913 0.694359L102.17 0Z" fill="white"/>
<path d="M91.5148 19.7869L92.7995 23.2587L96.2713 24.5433L92.7995 25.828L91.5148 29.2998L90.2302 25.828L86.7584 24.5433L90.2302 23.2587L91.5148 19.7869Z" fill="white"/>
<path d="M112.443 11.0352L113.317 13.396L115.678 14.2696L113.317 15.1431L112.443 17.504L111.57 15.1431L109.209 14.2696L111.57 13.396L112.443 11.0352Z" fill="white"/>
<path d="M181.766 148.892C178.15 160.498 178.645 180.741 192.8 184.851C192.8 184.851 189.299 183.481 189.756 177.241" stroke="#5C310A" stroke-width="1.25457" stroke-linecap="round" stroke-linejoin="round"/>
<path d="M189.689 178.083C192.162 182.458 198.25 193.684 206.242 194.064C206.242 194.064 203.958 191.781 202.246 187.025C205.29 190.069 215.754 198.821 223.555 196.918" stroke="#5C310A" stroke-width="1.25457" stroke-linecap="round" stroke-linejoin="round"/>
<path d="M192.352 169.901C194.825 174.277 196.538 183.029 204.529 183.41C204.529 183.41 202.246 181.127 200.533 176.37C203.577 179.414 214.042 188.166 221.842 186.264" stroke="#5C310A" stroke-width="1.25457" stroke-linecap="round" stroke-linejoin="round"/>
<path d="M224.125 156.393C221.652 152.017 217.086 144.294 209.094 143.914C209.094 143.914 211.378 146.197 213.09 150.953C210.046 147.909 208.905 144.026 201.104 145.929" stroke="#5C310A" stroke-width="1.25457" stroke-linecap="round" stroke-linejoin="round"/>
<path d="M91.2891 261.838C93.6693 248.814 106.157 240.186 119.181 242.566L133.779 245.234L129.47 268.816L91.2891 261.838V261.838Z" fill="white"/>
<mask id="mask3" style="mask-type:alpha" maskUnits="userSpaceOnUse" x="91" y="242" width="43" height="27">
<path d="M91.2891 261.838C93.6693 248.814 106.157 240.186 119.181 242.566L133.779 245.234L129.47 268.816L91.2891 261.838V261.838Z" fill="white"/>
</mask>
<g mask="url(#mask3)">
<rect x="91.2697" y="257.729" width="39.7105" height="4.09794" transform="rotate(12.879 91.2697 257.729)" fill="#C4C4C4"/>
<rect x="94.1696" y="256.389" width="1.1007" height="6.51545" transform="rotate(12.879 94.1696 256.389)" fill="white"/>
<rect x="99.5421" y="257.295" width="1.1007" height="6.51545" transform="rotate(12.879 99.5421 257.295)" fill="white"/>
<rect x="105.114" y="258.935" width="1.1007" height="6.51545" transform="rotate(12.879 105.114 258.935)" fill="white"/>
<rect x="110.586" y="260.208" width="1.1007" height="6.51545" transform="rotate(12.879 110.586 260.208)" fill="white"/>
<rect x="116.226" y="260.646" width="1.1007" height="6.51545" transform="rotate(12.879 116.226 260.646)" fill="white"/>
<rect x="121.698" y="261.919" width="1.1007" height="6.51545" transform="rotate(12.879 121.698 261.919)" fill="white"/>
<rect x="127.071" y="262.825" width="1.1007" height="6.51545" transform="rotate(12.879 127.071 262.825)" fill="white"/>
<rect x="96.3137" y="258.561" width="1.10112" height="5.65897" transform="rotate(12.879 96.3137 258.561)" fill="white"/>
<rect x="101.686" y="259.467" width="1.10112" height="5.65897" transform="rotate(12.879 101.686 259.467)" fill="white"/>
<rect x="107.258" y="261.107" width="1.10112" height="5.65897" transform="rotate(12.879 107.258 261.107)" fill="white"/>
<rect x="112.731" y="262.38" width="1.10112" height="5.65897" transform="rotate(12.879 112.731 262.38)" fill="white"/>
<rect x="118.37" y="262.818" width="1.10112" height="5.65897" transform="rotate(12.879 118.37 262.818)" fill="white"/>
<rect x="123.843" y="264.091" width="1.10112" height="5.65897" transform="rotate(12.879 123.843 264.091)" fill="white"/>
<rect x="129.215" y="264.997" width="1.10112" height="5.65897" transform="rotate(12.879 129.215 264.997)" fill="white"/>
<path d="M117.211 237.34C118.747 240.119 117.738 243.617 114.959 245.153L103.628 251.414C100.849 252.95 97.3507 251.942 95.8149 249.163V249.163L117.211 237.34V237.34Z" fill="#C4C4C4"/>
<rect x="101.655" y="252.003" width="1.72208" height="5.88918" transform="rotate(151.076 101.655 252.003)" fill="#E46262"/>
<rect x="106.578" y="250.378" width="1.72208" height="6.35309" transform="rotate(151.076 106.578 250.378)" fill="#FAFF15"/>
<rect x="108.818" y="249.121" width="1.72208" height="6.13637" transform="rotate(151.076 108.818 249.121)" fill="#5B9D5A"/>
<rect x="104.153" y="251.377" width="1.72208" height="7.11755" transform="rotate(151.076 104.153 251.377)" fill="#FFB800"/>
<rect x="111.481" y="247.54" width="1.72208" height="6.8954" transform="rotate(151.076 111.481 247.54)" fill="#5BA4D9"/>
</g>
<circle cx="122.116" cy="254.117" r="5.13699" transform="rotate(-15.2068 122.116 254.117)" fill="white"/>
<ellipse cx="100.847" cy="252.277" rx="1.25457" ry="0.313643" transform="rotate(-25.0452 100.847 252.277)" fill="#C4C4C4"/>
<ellipse cx="103.369" cy="251.864" rx="1.25457" ry="0.313643" transform="rotate(-25.0452 103.369 251.864)" fill="#C4C4C4"/>
<ellipse cx="105.862" cy="250.478" rx="1.25457" ry="0.313643" transform="rotate(-25.0452 105.862 250.478)" fill="#C4C4C4"/>
<ellipse cx="107.918" cy="249.402" rx="1.25457" ry="0.313643" transform="rotate(-25.0452 107.918 249.402)" fill="#C4C4C4"/>
<ellipse cx="110.628" cy="247.753" rx="1.25457" ry="0.313643" transform="rotate(-25.0452 110.628 247.753)" fill="#C4C4C4"/>
<circle cx="34.6272" cy="237.063" r="1.14155" fill="#C4C4C4"/>
<circle cx="128.294" cy="263.915" r="1.14155" transform="rotate(-6.92369 128.294 263.915)" fill="#C4C4C4"/>
<circle cx="31.9637" cy="235.921" r="1.14155" fill="#C4C4C4"/>
<ellipse cx="11.7582" cy="219.462" rx="1.25457" ry="0.313643" transform="rotate(-10.6629 11.7582 219.462)" fill="#C4C4C4"/>
<ellipse cx="14.3035" cy="219.689" rx="1.25457" ry="0.313643" transform="rotate(-10.6629 14.3035 219.689)" fill="#C4C4C4"/>
<ellipse cx="16.8125" cy="218.434" rx="1.25457" ry="0.313643" transform="rotate(-10.6629 16.8125 218.434)" fill="#C4C4C4"/>
<ellipse cx="19.3217" cy="218.434" rx="1.25457" ry="0.313643" transform="rotate(-10.6629 19.3217 218.434)" fill="#C4C4C4"/>
<ellipse cx="21.8309" cy="217.179" rx="1.25457" ry="0.313643" transform="rotate(-10.6629 21.8309 217.179)" fill="#C4C4C4"/>
<circle cx="125.512" cy="263.103" r="1.14155" transform="rotate(-6.92369 125.512 263.103)" fill="#C4C4C4"/>
<path d="M127.487 45.6765C124.225 42.6655 124.455 34.3854 124.978 30.6217C125.71 26.0216 127.361 18.1387 126.859 24.6624C126.232 32.8172 125.918 33.1308 129.996 42.8537C133.258 50.6321 129.682 57.3858 127.487 59.7904C128.846 56.3404 130.749 48.6875 127.487 45.6765Z" fill="#070706"/>
<path d="M3.47551e-05 225.964C5.71312 214.02 20.0267 208.97 31.9704 214.683L45.3579 221.086L35.0134 242.712L3.47551e-05 225.964V225.964Z" fill="white"/>
<mask id="mask4" style="mask-type:alpha" maskUnits="userSpaceOnUse" x="0" y="212" width="46" height="31">
<path d="M0.000217861 225.964C5.7133 214.02 20.0269 208.97 31.9706 214.683L45.358 221.086L35.0136 242.712L0.000217861 225.964V225.964Z" fill="white"/>
</mask>
<g mask="url(#mask4)">
<rect x="1.05933" y="221.994" width="39.7105" height="4.09794" transform="rotate(28.0858 1.05933 221.994)" fill="#C4C4C4"/>
<rect x="4.20923" y="221.461" width="1.1007" height="6.51545" transform="rotate(28.0858 4.20923 221.461)" fill="white"/>
<rect x="9.15588" y="223.745" width="1.1007" height="6.51545" transform="rotate(28.0858 9.15588 223.745)" fill="white"/>
<rect x="14.1027" y="226.789" width="1.1007" height="6.51545" transform="rotate(28.0858 14.1027 226.789)" fill="white"/>
<rect x="19.0494" y="229.452" width="1.1007" height="6.51545" transform="rotate(28.0858 19.0494 229.452)" fill="white"/>
<rect x="24.3767" y="231.355" width="1.1007" height="6.51545" transform="rotate(28.0858 24.3767 231.355)" fill="white"/>
<rect x="29.3234" y="234.019" width="1.1007" height="6.51545" transform="rotate(28.0858 29.3234 234.019)" fill="white"/>
<rect x="34.2701" y="236.302" width="1.1007" height="6.51545" transform="rotate(28.0858 34.2701 236.302)" fill="white"/>
<rect x="5.70862" y="224.12" width="1.10112" height="5.65897" transform="rotate(28.0858 5.70862 224.12)" fill="white"/>
<rect x="10.6553" y="226.403" width="1.10112" height="5.65897" transform="rotate(28.0858 10.6553 226.403)" fill="white"/>
<rect x="15.6021" y="229.447" width="1.10112" height="5.65897" transform="rotate(28.0858 15.6021 229.447)" fill="white"/>
<rect x="20.5488" y="232.111" width="1.10112" height="5.65897" transform="rotate(28.0858 20.5488 232.111)" fill="white"/>
<rect x="25.876" y="234.013" width="1.10112" height="5.65897" transform="rotate(28.0858 25.876 234.013)" fill="white"/>
<rect x="30.8228" y="236.677" width="1.10112" height="5.65897" transform="rotate(28.0858 30.8228 236.677)" fill="white"/>
<rect x="35.7695" y="238.96" width="1.10112" height="5.65897" transform="rotate(28.0858 35.7695 238.96)" fill="white"/>
<path d="M27.0567 209.32C27.8097 212.405 25.9194 215.516 22.8345 216.269L10.2579 219.339C7.17306 220.092 4.06186 218.202 3.30885 215.117V215.117L27.0567 209.32V209.32Z" fill="#C4C4C4"/>
<rect x="12.5826" y="219.192" width="1.72208" height="5.88919" transform="rotate(166.283 12.5826 219.192)" fill="#E46262"/>
<rect x="17.5169" y="218.38" width="1.72208" height="5.83712" transform="rotate(166.283 17.5169 218.38)" fill="#FAFF15"/>
<rect x="20.2515" y="218.29" width="1.72208" height="6.13637" transform="rotate(166.283 20.2515 218.29)" fill="#5B9D5A"/>
<rect x="15.157" y="219.244" width="1.72208" height="7.11755" transform="rotate(166.283 15.157 219.244)" fill="#FFB800"/>
<rect x="22.7145" y="217.125" width="1.72208" height="6.8954" transform="rotate(166.283 22.7145 217.125)" fill="#5BA4D9"/>
</g>
<circle cx="31.7734" cy="226.599" r="6.27855" fill="#C4C4C4"/>
<circle cx="31.7733" cy="226.598" r="5.13699" fill="white"/>
<path d="M33.6086 223.586L33.0717 226.045L34.5892 228.053L32.1298 227.517L30.1214 229.034L30.6583 226.575L29.1408 224.566L31.6002 225.103L33.6086 223.586Z" fill="#FFB800"/>
<path d="M33.9586 207.695L48.4552 217.58L45.0065 221.495L29.011 214.95L33.9586 207.695Z" fill="white"/>
<path d="M118.387 236.712L135.208 241.703L133.118 246.484L115.889 245.132L118.387 236.712Z" fill="white"/>
</svg>
